<svg width="10" height="10" viewBox="0 0 10 10" fill="none" xmlns="http://www.w3.org/2000/svg">
<g clip-path="url(#clip0_186_2472)">
<path fill-rule="evenodd" clip-rule="evenodd" d="M0 5.02792C0 7.51375 1.80542 9.58083 4.16667 10V6.38875H2.91667V5H4.16667V3.88875C4.16667 2.63875 4.97208 1.94458 6.11125 1.94458C6.47208 1.94458 6.86125 2 7.22208 2.05542V3.33333H6.58333C5.97208 3.33333 5.83333 3.63875 5.83333 4.02792V5H7.16667L6.94458 6.38875H5.83333V10C8.19458 9.58083 10 7.51417 10 5.02792C10 2.2625 7.75 0 5 0C2.25 0 0 2.2625 0 5.02792Z" fill="#F5F5F5"/>
</g>
<defs>
<clipPath id="clip0_186_2472">
<rect width="10" height="10" fill="white"/>
</clipPath>
</defs>
</svg>
