<svg width="10" height="10" viewBox="0 0 10 10" fill="none" xmlns="http://www.w3.org/2000/svg">
<g clip-path="url(#clip0_186_2482)">
<path fill-rule="evenodd" clip-rule="evenodd" d="M3.11025 0.444004C3.599 0.421504 3.75484 0.416504 4.99984 0.416504C6.24484 0.416504 6.40067 0.421921 6.889 0.444004C7.37734 0.466087 7.71067 0.544004 8.00234 0.656921C8.30775 0.772337 8.58484 0.952754 8.814 1.18609C9.04734 1.41484 9.22734 1.6915 9.34234 1.99734C9.45567 2.289 9.53317 2.62234 9.55567 3.10984C9.57817 3.59942 9.58317 3.75525 9.58317 4.99984C9.58317 6.24484 9.57775 6.40067 9.55567 6.88942C9.53359 7.37692 9.45567 7.71025 9.34234 8.00192C9.22733 8.30779 9.04704 8.58492 8.814 8.814C8.58484 9.04734 8.30775 9.22734 8.00234 9.34234C7.71067 9.45567 7.37734 9.53317 6.88984 9.55567C6.40067 9.57817 6.24484 9.58317 4.99984 9.58317C3.75484 9.58317 3.599 9.57775 3.11025 9.55567C2.62275 9.53359 2.28942 9.45567 1.99775 9.34234C1.69189 9.22732 1.41476 9.04703 1.18567 8.814C0.952496 8.58512 0.772052 8.30812 0.656921 8.00234C0.544004 7.71067 0.466504 7.37734 0.444004 6.88984C0.421504 6.40025 0.416504 6.24442 0.416504 4.99984C0.416504 3.75484 0.421921 3.599 0.444004 3.11067C0.466087 2.62234 0.544004 2.289 0.656921 1.99734C0.772222 1.69154 0.952803 1.41455 1.18609 1.18567C1.41485 0.952546 1.6917 0.772105 1.99734 0.656921C2.289 0.544004 2.62234 0.466504 3.10984 0.444004H3.11025ZM6.85192 1.269C6.36859 1.24692 6.22359 1.24234 4.99984 1.24234C3.77609 1.24234 3.63109 1.24692 3.14775 1.269C2.70067 1.28942 2.45817 1.364 2.2965 1.42692C2.08275 1.51025 1.92984 1.609 1.76942 1.76942C1.61736 1.91736 1.50033 2.09745 1.42692 2.2965C1.364 2.45817 1.28942 2.70067 1.269 3.14775C1.24692 3.63109 1.24234 3.77609 1.24234 4.99984C1.24234 6.22359 1.24692 6.36859 1.269 6.85192C1.28942 7.299 1.364 7.5415 1.42692 7.70317C1.50025 7.90192 1.61734 8.08234 1.76942 8.23025C1.91734 8.38234 2.09775 8.49942 2.2965 8.57275C2.45817 8.63567 2.70067 8.71025 3.14775 8.73067C3.63109 8.75275 3.77567 8.75734 4.99984 8.75734C6.224 8.75734 6.36859 8.75275 6.85192 8.73067C7.299 8.71025 7.5415 8.63567 7.70317 8.57275C7.91692 8.48942 8.06984 8.39067 8.23025 8.23025C8.38234 8.08234 8.49942 7.90192 8.57275 7.70317C8.63567 7.5415 8.71025 7.299 8.73067 6.85192C8.75275 6.36859 8.75734 6.22359 8.75734 4.99984C8.75734 3.77609 8.75275 3.63109 8.73067 3.14775C8.71025 2.70067 8.63567 2.45817 8.57275 2.2965C8.48942 2.08275 8.39067 1.92984 8.23025 1.76942C8.08231 1.61737 7.90221 1.50034 7.70317 1.42692C7.5415 1.364 7.299 1.28942 6.85192 1.269ZM4.41442 6.41275C4.74136 6.54885 5.10541 6.56722 5.44439 6.46472C5.78337 6.36222 6.07625 6.14522 6.27301 5.85077C6.46977 5.55632 6.55819 5.2027 6.52319 4.8503C6.48819 4.4979 6.33192 4.16858 6.08109 3.91859C5.92119 3.75879 5.72784 3.63643 5.51498 3.56032C5.30211 3.4842 5.07502 3.45624 4.85004 3.47843C4.62507 3.50062 4.40782 3.57241 4.21392 3.68864C4.02003 3.80487 3.85431 3.96265 3.72871 4.15061C3.60311 4.33857 3.52075 4.55204 3.48755 4.77565C3.45436 4.99927 3.47115 5.22746 3.53673 5.4438C3.60231 5.66015 3.71504 5.85926 3.8668 6.0268C4.01857 6.19435 4.2056 6.32616 4.41442 6.41275ZM3.334 3.334C3.55276 3.11524 3.81247 2.94171 4.09829 2.82332C4.38412 2.70493 4.69046 2.64399 4.99984 2.64399C5.30921 2.64399 5.61556 2.70493 5.90138 2.82332C6.1872 2.94171 6.44691 3.11524 6.66567 3.334C6.88443 3.55276 7.05796 3.81247 7.17635 4.09829C7.29475 4.38412 7.35568 4.69046 7.35568 4.99984C7.35568 5.30921 7.29475 5.61556 7.17635 5.90138C7.05796 6.1872 6.88443 6.44691 6.66567 6.66567C6.22386 7.10748 5.62465 7.35568 4.99984 7.35568C4.37503 7.35568 3.77581 7.10748 3.334 6.66567C2.8922 6.22386 2.64399 5.62465 2.64399 4.99984C2.64399 4.37503 2.8922 3.77581 3.334 3.334ZM7.87817 2.99484C7.93238 2.9437 7.97578 2.8822 8.0058 2.81399C8.03582 2.74578 8.05184 2.67224 8.05293 2.59772C8.05401 2.52321 8.04014 2.44923 8.01212 2.38017C7.98411 2.31112 7.94252 2.24838 7.88982 2.19569C7.83712 2.14299 7.77439 2.1014 7.70533 2.07339C7.63628 2.04537 7.5623 2.03149 7.48778 2.03258C7.41327 2.03367 7.33973 2.04969 7.27152 2.07971C7.2033 2.10973 7.14181 2.15313 7.09067 2.20734C6.99122 2.31277 6.93677 2.4528 6.93888 2.59772C6.94099 2.74265 6.9995 2.88104 7.10199 2.98352C7.20447 3.08601 7.34286 3.14452 7.48778 3.14663C7.6327 3.14874 7.77274 3.09429 7.87817 2.99484Z" fill="#F5F5F5"/>
</g>
<defs>
<clipPath id="clip0_186_2482">
<rect width="10" height="10" fill="white"/>
</clipPath>
</defs>
</svg>
