<svg width="10" height="10" viewBox="0 0 10 10" fill="none" xmlns="http://www.w3.org/2000/svg">
<g clip-path="url(#clip0_186_2477)">
<path fill-rule="evenodd" clip-rule="evenodd" d="M10 5C10 7.76125 7.76125 10 5 10C2.23875 10 0 7.76125 0 5C0 2.23875 2.23875 0 5 0C7.76125 0 10 2.23875 10 5ZM5.17917 3.69125C4.69292 3.89333 3.72083 4.31208 2.26333 4.94708C2.02667 5.04125 1.9025 5.13333 1.89125 5.22333C1.87208 5.37583 2.06292 5.43583 2.32208 5.51708C2.3575 5.52833 2.39417 5.53958 2.43167 5.55208C2.68708 5.635 3.03042 5.73208 3.20875 5.73583C3.37083 5.73917 3.55167 5.6725 3.75125 5.53583C5.11292 4.61625 5.81583 4.15167 5.86 4.14167C5.89125 4.13458 5.93458 4.12542 5.96375 4.15167C5.99292 4.1775 5.99 4.22667 5.98708 4.24C5.96792 4.32042 5.22042 5.01583 4.83292 5.37583C4.71208 5.48792 4.62667 5.5675 4.60917 5.58583C4.57 5.62625 4.53 5.665 4.49167 5.70208C4.25417 5.93042 4.07667 6.10208 4.50167 6.38208C4.70583 6.51667 4.86917 6.62792 5.03208 6.73875C5.21 6.86 5.3875 6.98083 5.6175 7.13167C5.67583 7.17 5.73167 7.20958 5.78625 7.24833C5.99333 7.39625 6.17958 7.52875 6.40958 7.50792C6.54292 7.49542 6.68125 7.37 6.75125 6.99542C6.91667 6.10958 7.2425 4.19125 7.31792 3.40042C7.32251 3.33476 7.31971 3.26879 7.30958 3.20375C7.30352 3.15122 7.27794 3.10289 7.23792 3.06833C7.17833 3.01958 7.08583 3.00917 7.04417 3.01C6.85625 3.01333 6.56792 3.11375 5.17917 3.69125Z" fill="#F5F5F5"/>
</g>
<defs>
<clipPath id="clip0_186_2477">
<rect width="10" height="10" fill="white"/>
</clipPath>
</defs>
</svg>
