<svg width="10" height="8" viewBox="0 0 10 8" fill="none" xmlns="http://www.w3.org/2000/svg">
<path d="M9.5 1.38964C9.16903 1.53997 8.81349 1.64155 8.43971 1.68747C8.82538 1.45091 9.11391 1.07859 9.25148 0.639983C8.88913 0.860609 8.49256 1.01591 8.07901 1.09912C7.80091 0.794735 7.43255 0.592983 7.03113 0.525189C6.62971 0.457394 6.21769 0.527349 5.85903 0.724194C5.50037 0.921038 5.21514 1.23376 5.04763 1.6138C4.88011 1.99385 4.83968 2.41995 4.93262 2.82596C4.19841 2.78818 3.48017 2.59256 2.82449 2.2518C2.16881 1.91105 1.59035 1.43277 1.12666 0.848017C0.968114 1.12838 0.876949 1.45343 0.876949 1.79961C0.876772 2.11125 0.951638 2.41812 1.0949 2.69299C1.23817 2.96786 1.44541 3.20223 1.69823 3.3753C1.40502 3.36574 1.11829 3.28453 0.861887 3.13842V3.1628C0.861857 3.59989 1.00935 4.02353 1.27934 4.36184C1.54933 4.70015 1.92518 4.93228 2.34313 5.01885C2.07113 5.09431 1.78596 5.10543 1.50916 5.05136C1.62708 5.42745 1.85678 5.75633 2.16609 5.99195C2.47541 6.22757 2.84886 6.35815 3.23417 6.36539C2.58009 6.89173 1.77231 7.17724 0.940765 7.17599C0.793466 7.17603 0.646291 7.16721 0.5 7.14958C1.34406 7.70589 2.32661 8.00114 3.33009 8C6.72699 8 8.58399 5.11596 8.58399 2.61468C8.58399 2.53342 8.58201 2.45134 8.57844 2.37008C8.93965 2.10231 9.25144 1.77072 9.49921 1.39086L9.5 1.38964Z" fill="white"/>
</svg>
