<svg width="10" height="10" viewBox="0 0 10 10" fill="none" xmlns="http://www.w3.org/2000/svg">
<g clip-path="url(#clip0_186_2486)">
<path fill-rule="evenodd" clip-rule="evenodd" d="M9.77083 2.4785C9.84 2.251 9.77083 2.0835 9.43958 2.0835H8.34583C8.0675 2.0835 7.93917 2.22808 7.86958 2.38766C7.86958 2.38766 7.31333 3.71933 6.52542 4.58433C6.27042 4.83516 6.15458 4.91475 6.01542 4.91475C5.94583 4.91475 5.84125 4.83516 5.84125 4.60725V2.4785C5.84125 2.20516 5.76458 2.0835 5.53292 2.0835H3.81292C3.63917 2.0835 3.53458 2.21016 3.53458 2.33058C3.53458 2.58933 3.92875 2.64933 3.96917 3.37766V4.96016C3.96917 5.30725 3.90542 5.37016 3.76625 5.37016C3.39542 5.37016 2.49333 4.03225 1.95792 2.50141C1.85417 2.2035 1.74917 2.0835 1.46958 2.0835H0.375C0.0625 2.0835 0 2.22808 0 2.38766C0 2.67183 0.370833 4.0835 1.72708 5.95058C2.63125 7.22558 3.90417 7.91683 5.06375 7.91683C5.75917 7.91683 5.845 7.7635 5.845 7.49891V6.53516C5.845 6.22808 5.91083 6.16683 6.13125 6.16683C6.29375 6.16683 6.57167 6.24683 7.22083 6.86141C7.9625 7.59016 8.08458 7.91683 8.50208 7.91683H9.59583C9.90833 7.91683 10.065 7.7635 9.975 7.46016C9.87583 7.1585 9.52167 6.72058 9.05208 6.201C8.79708 5.90516 8.41458 5.58641 8.29833 5.42683C8.13625 5.22225 8.1825 5.131 8.29833 4.94891C8.29833 4.94891 9.63167 3.10475 9.77042 2.4785H9.77083Z" fill="#F5F5F5"/>
</g>
<defs>
<clipPath id="clip0_186_2486">
<rect width="10" height="10" fill="white"/>
</clipPath>
</defs>
</svg>
