<svg width="16" height="16" viewBox="0 0 16 16" fill="none" xmlns="http://www.w3.org/2000/svg">
<path d="M2 3.3335H4.66667M14 3.3335H7.33333M2 8.00016H10M14 8.00016H12.6667M2 12.6668H3.33333M14 12.6668H6" stroke="#313131" stroke-linecap="round" stroke-linejoin="round"/>
<path d="M6.00033 4.66667C6.73671 4.66667 7.33366 4.06971 7.33366 3.33333C7.33366 2.59695 6.73671 2 6.00033 2C5.26395 2 4.66699 2.59695 4.66699 3.33333C4.66699 4.06971 5.26395 4.66667 6.00033 4.66667Z" stroke="#313131" stroke-linecap="round" stroke-linejoin="round"/>
<path d="M11.3333 9.33317C12.0697 9.33317 12.6667 8.73622 12.6667 7.99984C12.6667 7.26346 12.0697 6.6665 11.3333 6.6665C10.597 6.6665 10 7.26346 10 7.99984C10 8.73622 10.597 9.33317 11.3333 9.33317Z" stroke="#313131" stroke-linecap="round" stroke-linejoin="round"/>
<path d="M4.66634 14.0002C5.40272 14.0002 5.99967 13.4032 5.99967 12.6668C5.99967 11.9304 5.40272 11.3335 4.66634 11.3335C3.92996 11.3335 3.33301 11.9304 3.33301 12.6668C3.33301 13.4032 3.92996 14.0002 4.66634 14.0002Z" stroke="#313131" stroke-linecap="round" stroke-linejoin="round"/>
</svg>
