<svg width="16" height="16" viewBox="0 0 16 16" fill="none" xmlns="http://www.w3.org/2000/svg">
<path d="M14.1717 7.30816C14.4877 7.7215 14.4877 8.2795 14.1717 8.69216C13.1763 9.9915 10.7883 12.6668 8.00033 12.6668C5.21233 12.6668 2.82433 9.9915 1.829 8.69216C1.67526 8.49425 1.5918 8.25078 1.5918 8.00016C1.5918 7.74955 1.67526 7.50607 1.829 7.30816C2.82433 6.00883 5.21233 3.3335 8.00033 3.3335C10.7883 3.3335 13.1763 6.00883 14.1717 7.30816V7.30816Z" stroke="#454545" stroke-linecap="round" stroke-linejoin="round"/>
<path d="M8 10C9.10457 10 10 9.10457 10 8C10 6.89543 9.10457 6 8 6C6.89543 6 6 6.89543 6 8C6 9.10457 6.89543 10 8 10Z" stroke="#454545" stroke-linecap="round" stroke-linejoin="round"/>
</svg>
